<svg viewBox="0 0 200 80" xmlns="http://www.w3.org/2000/svg">
  <path
    d="M15 50
       C 30 35, 55 30, 80 32
       C 105 34, 125 30, 150 35
       C 165 38, 180 45, 190 52
       L 182 56
       C 170 48, 155 44, 140 44
       C 125 44, 110 48, 95 52
       C 80 56, 65 58, 50 57
       C 35 56, 25 52, 18 54
       Z

       M70 30
       C 72 24, 78 20, 84 20
       C 90 20, 96 24, 98 30
       C 90 29, 80 29, 72 30
       Z

       M42 48
       L 30 68
       L 37 69
       L 48 50
       Z

       M78 50
       L 70 70
       L 77 71
       L 86 51
       Z

       M132 40
       L 150 24
       L 156 28
       L 140 42
       Z

       M152 46
       L 170 64
       L 176 60
       L 160 44
       Z"
    fill="black"
  />
</svg>
