<svg xmlns="http://www.w3.org/2000/svg" viewBox="0 0 512 512" fill="none">
  <title>Supervising veterinarian illustration (placeholder)</title>
  <defs>
    <linearGradient id="bg2" x1="0" y1="0" x2="1" y2="1">
      <stop offset="0" stop-color="#0d7f86" stop-opacity="0.14"/>
      <stop offset="1" stop-color="#0a5f65" stop-opacity="0.08"/>
    </linearGradient>
  </defs>
  <rect x="24" y="24" width="464" height="464" rx="44" fill="url(#bg2)"/>
  <circle cx="256" cy="210" r="86" fill="#ffe3c7"/>
  <path d="M186 196c12-18 32-30 70-30s58 12 70 30" stroke="#082a2c" stroke-opacity="0.45" stroke-width="10" stroke-linecap="round"/>
  <circle cx="224" cy="214" r="10" fill="#082a2c" fill-opacity="0.62"/>
  <circle cx="288" cy="214" r="10" fill="#082a2c" fill-opacity="0.62"/>
  <path d="M156 454c10-92 66-138 124-150 14 12 30 18 48 18s34-6 48-18c58 12 114 58 124 150" fill="#0a5f65" fill-opacity="0.10"/>
  <path d="M214 360h84" stroke="#0d7f86" stroke-opacity="0.75" stroke-width="10" stroke-linecap="round"/>
  <path d="M256 320v84" stroke="#0d7f86" stroke-opacity="0.75" stroke-width="10" stroke-linecap="round"/>
  <text x="256" y="96" text-anchor="middle" font-family="ui-sans-serif, system-ui" font-size="20" fill="#082a2c" fill-opacity="0.55">Add licensed photo</text>
</svg>

